<svg width="528" height="57" viewBox="0 0 528 57" fill="none" xmlns="http://www.w3.org/2000/svg">
<path d="M37.3 52.5999H6.5L17.7 42.2H26L28.3 44.2H18.7L12.4 50.2H34.7L37.3 52.5999Z" fill="url(#paint0_linear_1_537)"/>
<path d="M379.4 13.1H383.1V39.3H395.9V42.5H379.4V13.1Z" fill="#EAD432"/>
<path d="M400.2 13.8C400.2 12.4 401.2 11.4 402.6 11.4C404 11.4 405 12.4 405 13.8C405 15.3 404 16.2 402.6 16.2C401.2 16.2 400.2 15.3 400.2 13.8ZM400.8 20.7H404.4V42.4H400.8V20.7Z" fill="#EAD432"/>
<path d="M415.2 40.2H415L414.7 42.4H411.8V10.6H415.4V19.3L415.3 23.2C417.3 21.5 419.7 20.1 422.1 20.1C427.7 20.1 430.8 24.5 430.8 31.1C430.8 38.6 426.4 42.9 421.4 42.9C419.3 42.9 417.1 41.9 415.2 40.2ZM427 31.3C427 26.5 425.4 23.3 421.3 23.3C419.5 23.3 417.5 24.3 415.5 26.3V37.7C417.4 39.4 419.4 40 420.8 40C424.3 39.9 427 36.7 427 31.3Z" fill="#EAD432"/>
<path d="M436.5 20.7H439.5L439.8 24.7H439.9C441.4 21.9 443.6 20.2 446.1 20.2C447.1 20.2 447.7 20.3 448.4 20.7L447.7 23.9C447 23.6 446.5 23.5 445.6 23.5C443.8 23.5 441.6 24.8 440.1 28.5V42.5H436.5V20.7Z" fill="#EAD432"/>
<path d="M449.6 36.7999C449.6 32.0999 453.7 29.7 463 28.7C463 25.9 462.1 23.2 458.5 23.2C456 23.2 453.7 24.4 452 25.5L450.6 23C452.6 21.7 455.7 20.2 459.2 20.2C464.5 20.2 466.7 23.8 466.7 29.1V42.5H463.7L463.4 39.9H463.3C461.2 41.6 458.8 43 456.1 43C452.3 42.9 449.6 40.6999 449.6 36.7999ZM462.9 37.0999V31C455.6 31.9 453.1 33.7 453.1 36.5C453.1 39 454.8 40 456.9 40C459.1 40 460.8 38.9999 462.9 37.0999Z" fill="#EAD432"/>
<path d="M473.5 20.7H476.5L476.8 24.7H476.9C478.4 21.9 480.6 20.2 483.1 20.2C484.1 20.2 484.7 20.3 485.4 20.7L484.7 23.9C484 23.6 483.5 23.5 482.6 23.5C480.8 23.5 478.6 24.8 477.1 28.5V42.5H473.5V20.7Z" fill="#EAD432"/>
<path d="M488 51.2999L488.7 48.4C489.1 48.6 489.8 48.7999 490.3 48.7999C492.8 48.7999 494.3 46.7999 495.2 44.0999L495.7 42.5L487 20.7H490.8L495.2 32.7999C495.8 34.6999 496.6 36.9 497.3 38.9H497.5C498.1 36.9 498.7 34.6999 499.3 32.7999L503.2 20.7H506.8L498.6 44.2C497.1 48.5 494.8 51.7999 490.5 51.7999C489.5 51.7999 488.7 51.5999 488 51.2999Z" fill="#EAD432"/>
<path d="M85.7 15.5L76 41.6H71.2L61.5 15.4H65.3L73.7 38.4L82.2 15.4H85.7V15.5Z" fill="#9FA0A0"/>
<path d="M93.1 18.7H89.3V15.3H93.1V18.7ZM92.9 41.6H89.5V22H92.9V41.6Z" fill="#9FA0A0"/>
<path d="M112.1 25.6H111.9L110.4 25.3C109.9 25.3 109.4 25.3 108.7 25.3C107.7 25.3 106.6 25.5 105.7 26C104.7 26.5 103.8 27.1 102.9 27.8V41.7H99.6001V22H102.9V24.9C104 24 105.2 23.3 106.4 22.7C107.5 22.2 108.6 22 109.8 22.1C110.2 22.1 110.6 22.1 111.1 22.1L112.3 22.3L112.1 25.6Z" fill="#9FA0A0"/>
<path d="M125.7 41.5C125 41.7 124.3 41.8 123.6 41.9C122.9 42 122.3 42.1 121.6 42.1C119.9 42.2 118.3 41.6 117 40.5C115.8 39 115.2 37.2 115.4 35.3V24.8H113.1V22H115.4V16.4H118.8V22H125.7V24.8H118.8V33.8C118.8 34.8 118.8 35.6 118.8 36.2C118.8 36.8 119 37.3 119.3 37.8C119.5 38.3 119.9 38.6 120.4 38.8C121.1 39.1 121.8 39.2 122.5 39.1C123.1 39.1 123.7 39 124.2 38.9C124.6 38.8 125.1 38.7 125.5 38.5H125.7V41.5Z" fill="#9FA0A0"/>
<path d="M146.4 41.6H143V39.4C142 40.2 140.9 40.9 139.7 41.4C138.6 41.9 137.4 42.1 136.3 42.1C134.5 42.2 132.7 41.5 131.4 40.2C130.1 38.6 129.5 36.7 129.6 34.7V22H133V33.2C133 34.1 133 34.9 133.1 35.8C133.2 36.4 133.4 37.1 133.7 37.6C134 38.1 134.4 38.5 134.9 38.7C135.6 39 136.4 39.1 137.2 39.1C138.2 39.1 139.2 38.8 140.1 38.4C141.1 38 142.1 37.4 143 36.7V22H146.4V41.6Z" fill="#9FA0A0"/>
<path d="M168.6 41.6H165.2V39.6L164 40.4C163.5 40.7 163 41 162.5 41.3C161.9 41.6 161.2 41.8 160.5 42C159.7 42.2 158.8 42.3 157.9 42.3C156.2 42.3 154.5 41.7 153.3 40.5C152 39.3 151.3 37.7 151.4 36C151.3 34.7 151.7 33.5 152.4 32.4C153.1 31.4 154.1 30.6 155.2 30.2C156.6 29.6 158.1 29.3 159.6 29.1C161.3 28.9 163.1 28.8 165.1 28.7V28.2C165.1 27.6 165 26.9 164.7 26.3C164.4 25.8 164 25.4 163.6 25.2C163.1 24.9 162.5 24.7 161.9 24.6C161.2 24.5 160.5 24.5 159.8 24.5C158.8 24.5 157.8 24.6 156.9 24.8C155.7 25.1 154.6 25.4 153.5 25.8H153.4V22.4C154 22.2 155 22 156.2 21.8C157.4 21.6 158.6 21.5 159.9 21.5C161.1 21.5 162.4 21.6 163.6 21.9C164.6 22.1 165.5 22.5 166.3 23.1C167.1 23.6 167.6 24.4 168 25.2C168.4 26.2 168.6 27.3 168.5 28.4V41.6H168.6ZM165.3 36.8V31.3L161.7 31.6C160.6 31.7 159.5 31.8 158.4 32.1C157.5 32.3 156.7 32.8 156.1 33.4C154.8 34.8 154.9 36.9 156.2 38.3C157.1 38.9 158.3 39.2 159.4 39.2C160.5 39.2 161.6 39 162.6 38.5C163.5 38 164.4 37.5 165.3 36.8Z" fill="#9FA0A0"/>
<path d="M178.5 41.6H175.1V14.3H178.5V41.6Z" fill="#9FA0A0"/>
<path d="M229.5 15.5L222.6 41.7H218.5L213 19.9L207.5 41.6H203.6L196.5 15.4H200.1L205.7 37.3L211.2 15.5H214.8L220.4 37.5L226 15.5H229.5Z" fill="#595757"/>
<path d="M250.1 41.6H246.7V39.6L245.5 40.4C245 40.7 244.5 41 244 41.3C243.4 41.6 242.7 41.8 242.1 42C241.3 42.2 240.4 42.3 239.5 42.3C237.8 42.3 236.1 41.7 234.9 40.5C233.6 39.3 232.9 37.7 233 36C232.9 34.7 233.3 33.5 234 32.4C234.7 31.4 235.7 30.6 236.8 30.2C238.2 29.6 239.7 29.3 241.2 29.1C242.9 28.9 244.8 28.8 246.7 28.7V28.2C246.7 27.6 246.6 26.9 246.3 26.3C246 25.8 245.6 25.4 245.1 25.2C244.6 24.9 244 24.7 243.4 24.6C242.7 24.5 242 24.5 241.3 24.5C240.3 24.5 239.3 24.6 238.3 24.8C237.2 25.1 236 25.4 234.9 25.8H234.7V22.4C235.4 22.2 236.3 22 237.6 21.8C238.8 21.6 240 21.5 241.3 21.5C242.5 21.5 243.8 21.6 245 21.9C246 22.1 246.9 22.5 247.7 23.1C248.4 23.6 249 24.4 249.4 25.2C249.8 26.2 250 27.3 250 28.4V41.6H250.1ZM246.7 36.8V31.3L243 31.6C241.9 31.7 240.8 31.8 239.7 32.1C238.8 32.3 238 32.8 237.4 33.4C236.1 34.8 236.2 36.9 237.5 38.3C238.4 38.9 239.5 39.2 240.7 39.2C241.8 39.2 242.9 39 244 38.5C245 38 245.9 37.5 246.7 36.8Z" fill="#595757"/>
<path d="M260 41.6H256.6V14.3H260V41.6Z" fill="#595757"/>
<path d="M270.1 41.6H266.7V14.3H270.1V41.6Z" fill="#595757"/>
<path d="M310.6 39.8001C309.9 40.1001 309.3 40.3001 308.8 40.6001C308.1 40.9001 307.4 41.2001 306.7 41.4001C305.9 41.6001 305.2 41.8001 304.4 42.0001C303.5 42.2001 302.5 42.2001 301.6 42.2001C299.8 42.2001 298 42.0001 296.3 41.4001C294.7 40.9001 293.3 40.0001 292.2 38.9001C291 37.7001 290.1 36.3001 289.5 34.7001C288.8 32.8001 288.5 30.8001 288.5 28.7001C288.5 26.7001 288.8 24.8001 289.4 22.9001C290 21.3001 290.9 19.8001 292.1 18.6001C293.3 17.4001 294.7 16.6001 296.2 16.0001C297.9 15.4001 299.7 15.1001 301.6 15.1001C303.1 15.1001 304.5 15.3001 305.9 15.6001C307.5 16.0001 309.1 16.6001 310.7 17.4001V21.5001H310.4C309.1 20.4001 307.6 19.5001 306 18.9001C304.5 18.3001 303 18.1001 301.4 18.1001C300.2 18.1001 298.9 18.3001 297.7 18.7001C296.6 19.1001 295.6 19.8001 294.8 20.7001C293.9 21.7001 293.3 22.8001 292.9 24.0001C292.4 25.5001 292.2 27.1001 292.2 28.7001C292.2 30.3001 292.4 31.9001 293 33.4001C293.4 34.6001 294.1 35.7001 295 36.6001C295.8 37.5001 296.8 38.1001 297.9 38.5001C299 38.9001 300.2 39.1001 301.4 39.1001C303 39.1001 304.7 38.8001 306.2 38.2001C307.7 37.6001 309.2 36.7001 310.4 35.6001H310.7L310.6 39.8001Z" fill="#595757"/>
<path d="M318.9 18.7H315.1V15.3H318.9V18.7ZM318.7 41.6H315.3V22H318.7V41.6Z" fill="#595757"/>
<path d="M335.9 41.5C335.2 41.7 334.5 41.8 333.8 41.9C333.1 42 332.5 42.1 331.8 42.1C330.1 42.2 328.4 41.6 327.2 40.5C326 39 325.4 37.2 325.6 35.3V24.8H323.3V22H325.6V16.4H329V22H335.9V24.8H329V33.8C329 34.8 329 35.6 329 36.2C329 36.8 329.2 37.3 329.5 37.8C329.7 38.2 330.1 38.6 330.6 38.8C331.3 39.1 332 39.2 332.7 39.1C333.3 39.1 333.9 39 334.4 38.9C334.8 38.8 335.3 38.7 335.7 38.5H335.9V41.5Z" fill="#595757"/>
<path d="M357.3 22L345.6 48.9H341.9L345.6 40.7L337.6 22H341.3L347.5 36.5L353.7 22H357.3Z" fill="#595757"/>
<path d="M2.30005 6.19995V50.5999L17.7 37V19.9L14.1 16.8V36.2999L5.80005 43V9.39995L2.30005 6.19995Z" fill="url(#paint1_linear_1_537)"/>
<path d="M47.5 1L43.9 4.2V48.3L37.6 42.9V9.5L34 12.6V40L29.6 36.3V16.7L26 19.8V37L47.5 55.9V1Z" fill="#595757"/>
<defs>
<linearGradient id="paint0_linear_1_537" x1="21.9061" y1="54.3471" x2="21.9061" y2="41.0706" gradientUnits="userSpaceOnUse">
<stop offset="0.0192308" stop-color="#9FA0A0"/>
<stop offset="1" stop-color="#595757"/>
</linearGradient>
<linearGradient id="paint1_linear_1_537" x1="-0.0392087" y1="28.4255" x2="20.0899" y2="28.4255" gradientUnits="userSpaceOnUse">
<stop offset="0.049942" stop-color="#9FA0A0"/>
<stop offset="1" stop-color="#595757"/>
</linearGradient>
</defs>
</svg>
